<svg width="400" height="400" viewBox="0 0 400 400" fill="none" xmlns="http://www.w3.org/2000/svg">
  <defs>
    <linearGradient id="bg3" x1="0%" y1="0%" x2="100%" y2="100%">
      <stop offset="0%" style="stop-color:#059669;stop-opacity:1" />
      <stop offset="100%" style="stop-color:#0D9488;stop-opacity:1" />
    </linearGradient>
    <linearGradient id="face3" x1="0%" y1="0%" x2="100%" y2="100%">
      <stop offset="0%" style="stop-color:#FEF3C7;stop-opacity:1" />
      <stop offset="100%" style="stop-color:#FDE68A;stop-opacity:1" />
    </linearGradient>
  </defs>
  
  <!-- 背景 -->
  <rect width="400" height="400" fill="url(#bg3)"/>
  
  <!-- 頭部 -->
  <circle cx="200" cy="160" r="80" fill="url(#face3)"/>
  
  <!-- 身體 -->
  <ellipse cx="200" cy="320" rx="100" ry="80" fill="url(#face3)"/>
  
  <!-- 眼睛 -->
  <circle cx="175" cy="145" r="8" fill="#1F2937"/>
  <circle cx="225" cy="145" r="8" fill="#1F2937"/>
  
  <!-- 嘴巴 -->
  <path d="M 180 175 Q 200 190 220 175" stroke="#1F2937" stroke-width="3" fill="none" stroke-linecap="round"/>
  
  <!-- 頭髮 -->
  <path d="M 120 120 Q 200 80 280 120 Q 260 90 200 70 Q 140 90 120 120" fill="#1F2937"/>
  
  <!-- 企業圖案 -->
  <rect x="170" y="220" width="60" height="40" rx="5" fill="none" stroke="#059669" stroke-width="3"/>
  <rect x="175" y="225" width="50" height="30" fill="#0D9488" opacity="0.3"/>
  <line x1="185" y1="235" x2="215" y2="235" stroke="#059669" stroke-width="2"/>
  <line x1="185" y1="245" x2="215" y2="245" stroke="#059669" stroke-width="2"/>
  
  <!-- 裝飾元素 -->
  <circle cx="150" cy="100" r="4" fill="white" opacity="0.6"/>
  <circle cx="250" cy="100" r="4" fill="white" opacity="0.6"/>
  <circle cx="200" cy="80" r="3" fill="white" opacity="0.4"/>
</svg>
