<svg width="400" height="250" viewBox="0 0 400 250" xmlns="http://www.w3.org/2000/svg">
  <defs>
    <linearGradient id="news1Gradient" x1="0%" y1="0%" x2="100%" y2="100%">
      <stop offset="0%" style="stop-color:#4F46E5;stop-opacity:1" />
      <stop offset="100%" style="stop-color:#7C3AED;stop-opacity:1" />
    </linearGradient>
    <linearGradient id="iconGradient" x1="0%" y1="0%" x2="100%" y2="100%">
      <stop offset="0%" style="stop-color:#FFFFFF;stop-opacity:0.9" />
      <stop offset="100%" style="stop-color:#FFFFFF;stop-opacity:0.7" />
    </linearGradient>
  </defs>
  
  <!-- Background -->
  <rect width="400" height="250" fill="url(#news1Gradient)" rx="12"/>
  
  <!-- Decorative elements -->
  <circle cx="320" cy="60" r="40" fill="rgba(255,255,255,0.1)"/>
  <circle cx="80" cy="180" r="30" fill="rgba(255,255,255,0.1)"/>
  
  <!-- Main icon -->
  <g transform="translate(150,75)">
    <!-- Certificate/diploma icon -->
    <rect x="0" y="0" width="100" height="80" fill="url(#iconGradient)" rx="8"/>
    <rect x="10" y="10" width="80" height="60" fill="rgba(79,70,229,0.1)" rx="4"/>
    
    <!-- Text lines -->
    <rect x="15" y="20" width="70" height="3" fill="rgba(79,70,229,0.6)" rx="1.5"/>
    <rect x="15" y="30" width="50" height="3" fill="rgba(79,70,229,0.6)" rx="1.5"/>
    <rect x="15" y="40" width="60" height="3" fill="rgba(79,70,229,0.6)" rx="1.5"/>
    <rect x="15" y="50" width="45" height="3" fill="rgba(79,70,229,0.6)" rx="1.5"/>
    
    <!-- Seal/stamp -->
    <circle cx="85" cy="15" r="12" fill="#EF4444"/>
    <path d="M85 9 L87 13 L91 13 L88 16 L89 20 L85 17 L81 20 L82 16 L79 13 L83 13 Z" fill="white"/>
  </g>
  
  <!-- Text overlay -->
  <text x="200" y="220" text-anchor="middle" fill="white" font-family="Arial, sans-serif" font-size="14" font-weight="600">
    專業教練認證課程
  </text>
</svg>
